PathFileType	4	(X/Y/Z)	Patient4_TMGait_0pt8_01_right_21.trc.trc
DataRate	CameraRate	NumFrames	NumMarkers	Units	OrigDataRate	OrigDataStartFrame	OrigNumFrames
88.607594936709	88.607594936709	6	33	mm	88.607594936709	1	       141
Frame#	Time	Sacral			L.Shoulder			Chest			R.Shoulder			Neck			R.ASIS			L.ASIS			R.Thigh.Superior			R.Thigh.Lateral			R.Thigh.Inferior			R.Patella			L.Thigh.Superior			L.Thigh.Lateral			L.Thigh.Inferior			L.Patella			L.Shank.Superior			L.Shank.Lateral			L.Shank.Inferior			R.Shank.Superior			R.Shank.Lateral			R.Shank.Inferior			R.Heel			R.Midfoot.Superior			R.Midfoot.Lateral			R.Toe			L.Heel			L.Midfoot.Lateral			L.Midfoot.Superior			L.Toe			L.Elbow			L.Wrist			R.Elbow			R.Wrist			
		X1	Y1	Z1	X2	Y2	Z2	X3	Y3	Z3	X4	Y4	Z4	X5	Y5	Z5	X6	Y6	Z6	X7	Y7	Z7	X8	Y8	Z8	X9	Y9	Z9	X10	Y10	Z10	X11	Y11	Z11	X12	Y12	Z12	X13	Y13	Z13	X14	Y14	Z14	X15	Y15	Z15	X16	Y16	Z16	X17	Y17	Z17	X18	Y18	Z18	X19	Y19	Z19	X20	Y20	Z20	X21	Y21	Z21	X22	Y22	Z22	X23	Y23	Z23	X24	Y24	Z24	X25	Y25	Z25	X26	Y26	Z26	X27	Y27	Z27	X28	Y28	Z28	X29	Y29	Z29	X30	Y30	Z30	X31	Y31	Z31	X32	Y32	Z32	X33	Y33	Z33	

1	23.370000000000	912.442936211701	1012.778191750056	437.576214490052	1082.745821945747	1438.515305331147	252.386263315407	1186.567685133415	1374.311554445548	415.222113492570	1099.952643995656	1446.315066724959	589.100593614349	1066.652791606850	1501.276213315525	407.946469860599	1139.507206234259	946.441749068495	551.551306722316	1123.811128395014	969.593030135152	279.086941046103	1222.366768432013	778.075035005866	529.506237134672	1180.831107464794	657.449291136613	604.956162784113	1276.749911917215	618.524455740677	532.823319906180	1291.176813203165	500.496067927222	555.621830142762	1161.064086600220	753.104275410910	302.357946846813	1060.048541575323	641.192476205004	249.513524874450	1146.055887918898	559.636432076358	304.635029916760	1143.324324690123	492.361845692341	313.873651610594	1117.774628454025	421.475550719037	310.992663915171	1023.473900171068	303.937282522916	276.732129163699	1089.413512199383	196.571879072010	343.288958562034	1203.334393212694	433.285075925937	555.953726656417	1071.860310349195	418.995689982342	607.699763266287	1039.719555914960	315.640706745191	556.041386668916	830.219990775530	290.297828539736	513.701578413954	986.007674305431	207.384595565218	563.791937407578	874.817931930204	222.288671418696	590.039781870741	1031.475436408118	86.938681491374	593.260186906283	972.901442486854	39.090991088381	408.367265268774	1037.268272108396	35.470805778935	319.629005206992	1122.141339654116	97.851958240485	335.855978627626	1246.678288387543	47.882004160759	294.998749177407	1112.063054126031	1088.108163876464	129.748323575085	1235.738952646682	857.956138283159	122.929629045595	1035.137120702151	1105.333757208334	710.449285027005	1132.128594018017	861.634320246561	719.191821339256	
2	23.381285714286	911.467422475425	1012.376706723501	436.878782284123	1082.070914115356	1438.635686071659	252.401845040943	1185.387354564335	1374.216922992309	415.457864270514	1098.341897410326	1445.727695932140	589.226231196855	1065.749849755961	1501.164151510700	407.938261303817	1138.791046299734	946.653557529723	551.126478558072	1123.172920706987	969.766955578683	278.563896476280	1224.016106128794	781.363492573628	528.612856503738	1185.476262396130	660.241217153751	604.749322277183	1281.566313915296	623.080375178706	532.130375238329	1299.019513796353	505.934188152196	554.968262978305	1157.938782018721	752.045548296380	302.052634665514	1055.304646132699	641.315140656725	249.232492744860	1139.878737048583	558.743078997357	304.370430631368	1136.144342278342	491.592409182506	313.841056688828	1110.386376034517	421.065585637102	310.878147093094	1015.332775251064	304.135334213073	276.656481390250	1080.598609018970	196.375992594899	343.196138316192	1213.745135852821	436.152659325712	556.135848003358	1083.797619949746	416.450991771643	608.998670906158	1055.511461479069	311.804937970850	557.643213777117	847.462174463228	278.182712830321	517.050100308892	1006.426721724533	201.601698434623	566.704244535196	895.035149281491	212.430035015095	593.397834616800	1056.236983079470	82.771180180580	595.972214486948	963.312189323584	39.112707591781	408.396445920508	1027.756159623547	35.436494877870	319.619516204901	1112.655078817769	97.802194682431	335.820285700115	1237.204182761336	47.781541460406	294.968235660536	1119.680130026829	1090.237306771970	128.271094535135	1257.004201957348	869.229423649543	122.708722363468	1025.465303075872	1106.258297150138	707.907303433751	1101.556702169167	858.589906160633	721.341136897159	
3	23.392571428571	910.500545197388	1011.947110905401	436.221292059392	1081.436489817829	1438.733647869050	252.444014312467	1184.242331856869	1374.085056956935	415.718081062944	1096.772836185506	1445.117218607815	589.377435372906	1064.880170163552	1501.027110144018	407.964334202634	1138.077896784215	946.833667854200	550.717322594292	1122.530629906255	969.918813052594	278.064432803689	1225.596035372490	784.550797451204	527.720185290695	1190.010319272439	662.954507648671	604.527661014519	1286.217363525847	627.486473123230	531.387179823319	1306.624072805395	511.250283435464	554.295215956989	1154.860079740881	750.997790023132	301.726072775737	1050.616193463828	641.431147856682	248.970219542888	1133.781816743849	557.858146255404	304.108504091632	1129.070845994688	490.842422893228	313.805049460482	1103.094604298912	420.657874749789	310.772699789580	1007.298426168085	304.329656371074	276.584913263624	1071.892093577741	196.178529699173	343.112812861578	1223.941970547784	438.904522130269	556.316762983097	1095.555596641894	413.763568723097	610.288180763492	1071.213175934605	307.821810005972	559.269588573157	864.686654818840	265.798036322949	520.396082125438	1026.817398075729	195.677252287433	569.658242011565	915.226167416862	202.391210268025	596.792287586974	1081.027664847282	78.556911859594	598.831147409986	953.851137797990	39.131902259146	408.420762879858	1018.365967449979	35.401496007594	319.610060750405	1103.291663158602	97.755526847518	335.784477259502	1227.852972864538	47.682815134536	294.937975337046	1127.095905495555	1092.336942338535	126.834262429889	1277.859613046006	880.537467579735	122.554355168507	1015.908303916868	1107.204298786930	705.452122421854	1071.581992946120	855.951750066753	723.434586347418	
4	23.403857142857	909.554568150444	1011.455393185688	435.635688426219	1080.900173671154	1438.775014474899	252.550546877828	1183.174309170078	1373.865794197221	416.043296590629	1095.284211869867	1444.454710106709	589.586792393682	1064.082677819028	1500.827628928868	408.065624231183	1137.365647634574	946.937235816947	550.350818430701	1121.891507938243	970.013859474927	277.613265336087	1227.005462341022	787.495503651726	526.836730433208	1194.261232081437	665.467964120333	604.289050928262	1290.481614517242	631.549110641613	530.566266971874	1313.716180615736	516.315501478843	553.599229236213	1151.840941782648	749.947000714915	301.378809920330	1045.991082367036	641.529658322936	248.746189546373	1127.774134435772	556.976202416279	303.866586500989	1122.128408919382	490.116943388834	313.774031379746	1095.910451903588	420.248602451628	310.692856369904	999.387781939606	304.516458111107	276.520481079583	1063.302288901007	195.975907703070	343.052774597513	1233.737144762504	441.427674478488	556.505795394177	1107.079697957568	410.731009569394	611.575384558445	1086.934853955737	303.541112810548	560.944254070631	882.242728609314	252.769872099770	523.729625272135	1047.454277371200	189.501107723627	572.679200469238	935.734970310863	191.945218738220	600.247510644689	1106.215867929608	74.388728626280	601.955960953146	944.533676646097	39.147745640725	408.437260254933	1009.106173033373	35.366806860594	319.600879116598	1094.061570847163	97.712451555084	335.752138510254	1218.632729950123	47.587858837386	294.908448265900	1134.162747834135	1094.382881770328	125.475650290910	1297.990137554216	892.082990440723	122.559987418910	1006.502316731214	1108.245859088507	703.186071442126	1042.652495253512	854.125369717011	725.423720895438	
5	23.415142857143	908.641528710095	1010.877962621346	435.143187346105	1080.513922307421	1438.729896848653	252.754281616589	1182.220064811012	1373.517854228285	416.469794253787	1093.907583814083	1443.719392228649	589.881261657110	1063.391093923658	1500.534356166432	408.275116166674	1136.650905328584	946.924621804417	550.051601946788	1121.266310092635	970.021155292906	277.231324195568	1228.153044971928	790.070522288665	525.972834305185	1198.064672233384	667.666087072281	604.031253729216	1294.159585288998	635.093700607009	529.655045743443	1320.052678143682	521.016429762998	552.885065209139	1148.886599021784	748.874914684711	301.019500188670	1041.423674937126	641.602309417675	248.575795249200	1121.844671009108	556.090119712559	303.664137547827	1115.314671817235	489.415561670759	313.760919015201	1088.819698324770	419.834644291168	310.654758770642	991.592122635877	304.693148661023	276.465797839472	1054.812769483575	195.765894652395	343.029124098657	1242.975293942966	443.633029823183	556.717034239784	1118.349364184163	407.183586204263	612.867897533150	1102.808515010664	298.857895308814	562.685343082845	900.512382986461	238.799845729283	527.030573757672	1068.624371068586	183.016291405130	575.777609604356	956.927499516220	180.926900601805	603.772606965790	1132.162180701627	70.407166328293	605.434079540116	935.347136033378	39.160169510956	408.443804392562	999.958529517755	35.333836889321	319.592077316232	1084.947730225667	97.672374308190	335.727234017460	1209.523991216920	47.499015316711	294.880336097710	1140.775367185759	1096.353604270045	124.225265894330	1317.151030323861	904.060814648041	122.806145341966	997.260072644234	1109.462911873780	701.203247615879	1015.120774089919	853.411575223448	727.268779730206	
6	23.426428571429	907.774822128006	1010.204330778720	434.752727704358	1080.320055176441	1438.574913552601	253.079792584256	1181.409714194119	1373.013012495818	417.025795488891	1092.666378341678	1442.901632940116	590.279094582468	1062.831847318586	1500.124788350401	408.614289245983	1135.931000361585	946.764763778380	549.841257596742	1120.671445461418	969.916318588122	276.934433433866	1228.962813161758	792.168458939724	525.142860097062	1201.270531705285	669.444571173892	603.755539448319	1297.084501594052	637.973996236149	528.661897302998	1325.433313682708	525.257183071331	552.167907092022	1145.995726512633	747.760995144306	300.666857316573	1036.903027649645	641.643178996823	248.469114526416	1115.972246218845	555.192557024345	303.522464423866	1108.610354064311	488.732545940592	313.782594360799	1081.794539671469	419.413965837292	310.672925505072	983.889104266110	304.858113385319	276.422855141663	1046.395442537200	195.547824492834	343.053051853789	1251.532828174101	445.460610256186	556.967235295261	1129.364458499222	403.007469396799	614.171357467459	1118.950295877444	293.734936829140	564.498237568438	919.849031867655	223.725231381168	530.262601830746	1090.567709928116	176.244431012753	578.941703913436	979.126662580091	169.273380151943	607.349917527452	1159.141772998076	66.800935746203	609.297505135386	926.263241814214	39.169872055694	408.439701010318	990.891365478579	35.304450755563	319.583684887154	1075.918990016633	97.633590798703	335.713874978822	1200.493067331050	47.418641334879	294.854478909308	1146.872434865476	1098.228703125989	123.104672447534	1335.160162465225	916.621260700587	123.352972219111	988.184875892876	1110.931582716303	699.582448052016	989.251494789066	853.974050488727	728.941139745574	
